<svg width="24" height="24" viewBox="0 0 24 24" fill="none" xmlns="http://www.w3.org/2000/svg">
<path d="M11.2875 19.0943L4.8375 12.6193C4.7375 12.5359 4.66683 12.4399 4.6255 12.3313C4.5835 12.2233 4.5625 12.1109 4.5625 11.9943C4.5625 11.8776 4.5835 11.7649 4.6255 11.6563C4.66683 11.5483 4.7375 11.4526 4.8375 11.3693L11.2875 4.89427C11.4375 4.76094 11.6125 4.68994 11.8125 4.68127C12.0125 4.67327 12.1875 4.74427 12.3375 4.89427C12.4875 5.04427 12.5665 5.21927 12.5745 5.41927C12.5832 5.61927 12.5125 5.80261 12.3625 5.96927L7.0625 11.2443H18.6875C18.8875 11.2443 19.0625 11.3149 19.2125 11.4563C19.3625 11.5983 19.4375 11.7776 19.4375 11.9943C19.4375 12.2109 19.3625 12.3899 19.2125 12.5313C19.0625 12.6733 18.8875 12.7443 18.6875 12.7443H7.0625L12.3625 18.0443C12.4958 18.1776 12.5665 18.3483 12.5745 18.5563C12.5832 18.7649 12.5125 18.9443 12.3625 19.0943C12.2125 19.2443 12.0335 19.3193 11.8255 19.3193C11.6168 19.3193 11.4375 19.2443 11.2875 19.0943Z" fill="#1C1B1F"/>
</svg>
