<svg width="24" height="24" viewBox="0 0 24 24" fill="none" xmlns="http://www.w3.org/2000/svg">
<path d="M11.6625 19.1002C11.5125 18.9502 11.4375 18.7709 11.4375 18.5622C11.4375 18.3542 11.5042 18.1752 11.6375 18.0252L16.9375 12.7502H5.3125C5.1125 12.7502 4.9375 12.6792 4.7875 12.5372C4.6375 12.3959 4.5625 12.2169 4.5625 12.0002C4.5625 11.7835 4.6375 11.6042 4.7875 11.4622C4.9375 11.3209 5.1125 11.2502 5.3125 11.2502H16.9375L11.6375 5.9752C11.5042 5.8252 11.4375 5.6462 11.4375 5.4382C11.4375 5.22953 11.5125 5.0502 11.6625 4.9002C11.8125 4.76686 11.9875 4.7002 12.1875 4.7002C12.3875 4.7002 12.5625 4.76686 12.7125 4.9002L19.1625 11.3752C19.2625 11.4585 19.3335 11.5542 19.3755 11.6622C19.4168 11.7709 19.4375 11.8835 19.4375 12.0002C19.4375 12.1169 19.4168 12.2292 19.3755 12.3372C19.3335 12.4459 19.2625 12.5419 19.1625 12.6252L12.7125 19.1002C12.5625 19.2335 12.3875 19.3002 12.1875 19.3002C11.9875 19.3002 11.8125 19.2335 11.6625 19.1002Z" fill="#1C1B1F"/>
</svg>
