<svg width="24" height="24" viewBox="0 0 24 24" fill="none" xmlns="http://www.w3.org/2000/svg">
<mask id="mask0_1052_3034" style="mask-type:alpha" maskUnits="userSpaceOnUse" x="0" y="0" width="24" height="24">
<rect width="24" height="24" fill="#D9D9D9"/>
</mask>
<g mask="url(#mask0_1052_3034)">
<path d="M9.55023 17.2749C9.43356 17.2749 9.32123 17.2539 9.21323 17.2119C9.10456 17.1706 9.00856 17.1082 8.92523 17.0249L4.75023 12.8499C4.60023 12.6999 4.52923 12.5206 4.53723 12.3119C4.5459 12.1039 4.6169 11.9249 4.75023 11.7749C4.90023 11.6249 5.07956 11.5499 5.28823 11.5499C5.49623 11.5499 5.6669 11.6249 5.80023 11.7749L9.55023 15.5249L18.2002 6.8749C18.3336 6.7249 18.5086 6.6499 18.7252 6.6499C18.9419 6.6499 19.1169 6.7249 19.2502 6.8749C19.4002 7.0249 19.4752 7.2039 19.4752 7.4119C19.4752 7.62057 19.4002 7.7999 19.2502 7.9499L10.1752 17.0249C10.0919 17.1082 9.99623 17.1706 9.88823 17.2119C9.77956 17.2539 9.6669 17.2749 9.55023 17.2749Z" fill="#1C1B1F"/>
</g>
</svg>
