<svg width="24" height="24" viewBox="0 0 24 24" fill="none" xmlns="http://www.w3.org/2000/svg">
<path d="M11.9999 13.0499L6.9249 18.1249C6.79157 18.2582 6.6209 18.3289 6.4129 18.3369C6.20424 18.3456 6.0249 18.2749 5.8749 18.1249C5.7249 17.9749 5.6499 17.7999 5.6499 17.5999C5.6499 17.3999 5.7249 17.2249 5.8749 17.0749L10.9499 11.9999L5.8749 6.9249C5.74157 6.79157 5.6709 6.62057 5.6629 6.4119C5.65424 6.2039 5.7249 6.0249 5.8749 5.8749C6.0249 5.7249 6.1999 5.6499 6.3999 5.6499C6.5999 5.6499 6.7749 5.7249 6.9249 5.8749L11.9999 10.9499L17.0749 5.8749C17.2082 5.74157 17.3792 5.67057 17.5879 5.6619C17.7959 5.6539 17.9749 5.7249 18.1249 5.8749C18.2749 6.0249 18.3499 6.1999 18.3499 6.3999C18.3499 6.5999 18.2749 6.7749 18.1249 6.9249L13.0499 11.9999L18.1249 17.0749C18.2582 17.2082 18.3289 17.3789 18.3369 17.5869C18.3456 17.7956 18.2749 17.9749 18.1249 18.1249C17.9749 18.2749 17.7999 18.3499 17.5999 18.3499C17.3999 18.3499 17.2249 18.2749 17.0749 18.1249L11.9999 13.0499Z" fill="#1C1B1F"/>
</svg>
