<svg width="24" height="24" viewBox="0 0 24 24" fill="none" xmlns="http://www.w3.org/2000/svg">
<path d="M7.3 20.4375C6.8 20.4375 6.375 20.2625 6.025 19.9125C5.675 19.5625 5.5 19.1375 5.5 18.6375V5.9375H5.25C5.03333 5.9375 4.85433 5.8665 4.713 5.7245C4.571 5.58317 4.5 5.40417 4.5 5.1875C4.5 4.97083 4.571 4.79183 4.713 4.6505C4.85433 4.5085 5.03333 4.4375 5.25 4.4375H9C9 4.1875 9.08733 3.97917 9.262 3.8125C9.43733 3.64583 9.65 3.5625 9.9 3.5625H14.1C14.35 3.5625 14.5627 3.64583 14.738 3.8125C14.9127 3.97917 15 4.1875 15 4.4375H18.75C18.9667 4.4375 19.146 4.5085 19.288 4.6505C19.4293 4.79183 19.5 4.97083 19.5 5.1875C19.5 5.40417 19.4293 5.58317 19.288 5.7245C19.146 5.8665 18.9667 5.9375 18.75 5.9375H18.5V18.6375C18.5 19.1375 18.325 19.5625 17.975 19.9125C17.625 20.2625 17.2 20.4375 16.7 20.4375H7.3ZM7 5.9375V18.6375C7 18.7208 7.02933 18.7918 7.088 18.8505C7.146 18.9085 7.21667 18.9375 7.3 18.9375H16.7C16.7833 18.9375 16.8543 18.9085 16.913 18.8505C16.971 18.7918 17 18.7208 17 18.6375V5.9375H7ZM9.4 16.1875C9.4 16.4042 9.471 16.5835 9.613 16.7255C9.75433 16.8668 9.93333 16.9375 10.15 16.9375C10.3667 16.9375 10.546 16.8668 10.688 16.7255C10.8293 16.5835 10.9 16.4042 10.9 16.1875V8.6875C10.9 8.47083 10.8293 8.2915 10.688 8.1495C10.546 8.00817 10.3667 7.9375 10.15 7.9375C9.93333 7.9375 9.75433 8.00817 9.613 8.1495C9.471 8.2915 9.4 8.47083 9.4 8.6875V16.1875ZM13.1 16.1875C13.1 16.4042 13.1707 16.5835 13.312 16.7255C13.454 16.8668 13.6333 16.9375 13.85 16.9375C14.0667 16.9375 14.246 16.8668 14.388 16.7255C14.5293 16.5835 14.6 16.4042 14.6 16.1875V8.6875C14.6 8.47083 14.5293 8.2915 14.388 8.1495C14.246 8.00817 14.0667 7.9375 13.85 7.9375C13.6333 7.9375 13.454 8.00817 13.312 8.1495C13.1707 8.2915 13.1 8.47083 13.1 8.6875V16.1875ZM7 18.6375C7 18.7208 7.02933 18.7918 7.088 18.8505C7.146 18.9085 7.21667 18.9375 7.3 18.9375H7C7 18.9375 7 18.9085 7 18.8505C7 18.7918 7 18.7208 7 18.6375Z" fill="#1C1B1F"/>
</svg>
