<svg width="24" height="24" viewBox="0 0 24 24" fill="none" xmlns="http://www.w3.org/2000/svg">
<path fill-rule="evenodd" clip-rule="evenodd" d="M4 12C4 7.584 7.584 4 12 4C16.416 4 20 7.584 20 12C20 16.416 16.416 20 12 20C7.584 20 4 16.416 4 12ZM15.7413 9.51015L13.2479 12.0051L15.7362 14.4898C15.9087 14.6599 15.9949 14.8883 15.9949 15.1142C15.9949 15.3401 15.9087 15.5685 15.7362 15.7411C15.5663 15.9137 15.338 16 15.1122 16C14.889 16 14.6607 15.9137 14.4883 15.7411L11.9975 13.2487L9.50666 15.7411C9.33672 15.9137 9.10843 16 8.88269 16C8.65948 16 8.4312 15.9137 8.25872 15.7411C8.08624 15.5711 8 15.3426 8 15.1168C8 14.8934 8.08624 14.665 8.25872 14.4924L10.7495 12L8.25872 9.50761C8.08624 9.33756 8 9.10914 8 8.88325C8 8.6599 8.08624 8.43147 8.25872 8.25888C8.42866 8.08629 8.65694 8 8.88269 8C9.1059 8 9.33418 8.08629 9.50666 8.25888L12.0025 10.7538L14.4933 8.26142C14.6633 8.08883 14.8916 8.00254 15.1173 8.00254C15.3405 8.00254 15.5688 8.08883 15.7413 8.26142C15.9138 8.43147 16 8.6599 16 8.88579C16 9.10914 15.9138 9.33756 15.7413 9.51015Z" fill="#D42F1A"/>
</svg>
