<svg width="24" height="24" viewBox="0 0 24 24" fill="none" xmlns="http://www.w3.org/2000/svg">
<path d="M10.8395 19.565L9.48947 18.284C7.8 16.721 6.29621 15.1861 4.97811 13.6793C3.65937 12.173 3 10.5579 3 8.83384C3 7.46425 3.45411 6.31605 4.36232 5.38924C5.26989 4.46308 6.39474 4 7.73684 4C8.49474 4 9.24884 4.18111 9.99916 4.54332C10.7488 4.90618 11.4158 5.49043 12 6.29607C12.5842 5.49043 13.2515 4.90618 14.0018 4.54332C14.7515 4.18111 15.5053 4 16.2632 4C17.6053 4 18.7301 4.46308 19.6377 5.38924C20.5459 6.31605 21 7.46425 21 8.83384C21 10.574 20.3289 12.2053 18.9868 13.7276C17.6447 15.2506 16.1447 16.7774 14.4868 18.3082L13.1605 19.5408C12.8289 19.8469 12.4421 20 12 20C11.5579 20 11.1711 19.855 10.8395 19.565Z" fill="#1C1B1F"/>
</svg>
