<svg width="24" height="24" viewBox="0 0 24 24" fill="none" xmlns="http://www.w3.org/2000/svg">
<path d="M10.9305 18.3499C10.6988 18.3499 10.5074 18.2743 10.3562 18.1232C10.2043 17.9713 10.1284 17.7795 10.1284 17.5478C10.1284 17.3161 10.2043 17.1243 10.3562 16.9724C10.5074 16.8213 10.6988 16.7457 10.9305 16.7457H13.0695C13.3012 16.7457 13.493 16.8213 13.6448 16.9724C13.796 17.1243 13.8716 17.3161 13.8716 17.5478C13.8716 17.7795 13.796 17.9713 13.6448 18.1232C13.493 18.2743 13.3012 18.3499 13.0695 18.3499H10.9305ZM3.4442 7.25411C3.21248 7.25411 3.02104 7.1739 2.86989 7.01348C2.71802 6.85306 2.64209 6.6659 2.64209 6.45201C2.64209 6.22029 2.71802 6.02885 2.86989 5.8777C3.02104 5.72583 3.21248 5.6499 3.4442 5.6499H20.5558C20.7875 5.6499 20.9793 5.72583 21.1312 5.8777C21.2823 6.02885 21.3579 6.22029 21.3579 6.45201C21.3579 6.6659 21.2823 6.85306 21.1312 7.01348C20.9793 7.1739 20.7875 7.25411 20.5558 7.25411H3.4442ZM6.65262 12.7886C6.4209 12.7886 6.22946 12.7127 6.07831 12.5608C5.92644 12.4097 5.85051 12.2183 5.85051 11.9865C5.85051 11.7726 5.92644 11.5855 6.07831 11.4251C6.22946 11.2646 6.4209 11.1844 6.65262 11.1844H17.3474C17.5791 11.1844 17.7709 11.2646 17.9227 11.4251C18.0739 11.5855 18.1495 11.7726 18.1495 11.9865C18.1495 12.2183 18.0739 12.4097 17.9227 12.5608C17.7709 12.7127 17.5791 12.7886 17.3474 12.7886H6.65262Z" fill="#1C1B1F"/>
</svg>
