<svg width="24" height="24" viewBox="0 0 24 24" fill="none" xmlns="http://www.w3.org/2000/svg">
<path d="M19.1748 20.2248L13.3998 14.4748C12.8998 14.8915 12.3248 15.2165 11.6748 15.4498C11.0248 15.6831 10.3581 15.7998 9.6748 15.7998C7.95814 15.7998 6.50814 15.2081 5.3248 14.0248C4.14147 12.8415 3.5498 11.3915 3.5498 9.6748C3.5498 7.9748 4.14147 6.5288 5.3248 5.3368C6.50814 4.14547 7.95814 3.5498 9.6748 3.5498C11.3748 3.5498 12.8165 4.14147 13.9998 5.3248C15.1831 6.50814 15.7748 7.95814 15.7748 9.6748C15.7748 10.3915 15.6581 11.0748 15.4248 11.7248C15.1915 12.3748 14.8748 12.9415 14.4748 13.4248L20.2498 19.1998C20.3831 19.3331 20.4498 19.4998 20.4498 19.6998C20.4498 19.8998 20.3748 20.0748 20.2248 20.2248C20.0748 20.3748 19.8958 20.4498 19.6878 20.4498C19.4791 20.4498 19.3081 20.3748 19.1748 20.2248ZM9.6748 14.2998C10.9581 14.2998 12.0458 13.8498 12.9378 12.9498C13.8291 12.0498 14.2748 10.9581 14.2748 9.6748C14.2748 8.39147 13.8291 7.2998 12.9378 6.3998C12.0458 5.4998 10.9581 5.0498 9.6748 5.0498C8.3748 5.0498 7.27914 5.4998 6.3878 6.3998C5.4958 7.2998 5.0498 8.39147 5.0498 9.6748C5.0498 10.9581 5.4958 12.0498 6.3878 12.9498C7.27914 13.8498 8.3748 14.2998 9.6748 14.2998Z" fill="#1C1B1F"/>
</svg>
