<svg width="24" height="24" viewBox="0 0 24 24" fill="none" xmlns="http://www.w3.org/2000/svg">
<path d="M15.7752 12.4501L14.6502 11.3251C14.8002 10.4918 14.5629 9.7461 13.9382 9.0881C13.3129 8.42943 12.5502 8.1751 11.6502 8.3251L10.5252 7.2001C10.7585 7.1001 10.9919 7.0251 11.2252 6.9751C11.4585 6.9251 11.7169 6.9001 12.0002 6.9001C13.1335 6.9001 14.0959 7.2961 14.8872 8.0881C15.6792 8.87943 16.0752 9.84176 16.0752 10.9751C16.0752 11.2584 16.0502 11.5208 16.0002 11.7621C15.9502 12.0041 15.8752 12.2334 15.7752 12.4501ZM18.9502 15.5501L17.8502 14.5251C18.4835 14.0418 19.0462 13.5124 19.5382 12.9371C20.0295 12.3624 20.4502 11.7084 20.8002 10.9751C19.9669 9.29176 18.7709 7.9541 17.2122 6.9621C15.6542 5.97076 13.9169 5.4751 12.0002 5.4751C11.5169 5.4751 11.0419 5.50843 10.5752 5.5751C10.1085 5.64176 9.6502 5.74176 9.2002 5.8751L8.0252 4.7001C8.65853 4.4501 9.30453 4.26676 9.9632 4.1501C10.6212 4.03343 11.3002 3.9751 12.0002 3.9751C14.2169 3.9751 16.2375 4.56243 18.0622 5.7371C19.8875 6.91243 21.2669 8.45843 22.2002 10.3751C22.2335 10.4418 22.2585 10.5291 22.2752 10.6371C22.2919 10.7458 22.3002 10.8584 22.3002 10.9751C22.3002 11.0918 22.2919 11.2041 22.2752 11.3121C22.2585 11.4208 22.2335 11.5084 22.2002 11.5751C21.8169 12.3584 21.3542 13.0834 20.8122 13.7501C20.2709 14.4168 19.6502 15.0168 18.9502 15.5501ZM19.2252 20.8251L15.7252 17.3251C15.2085 17.5251 14.6379 17.6834 14.0132 17.8001C13.3879 17.9168 12.7169 17.9751 12.0002 17.9751C9.76686 17.9751 7.74186 17.3878 5.9252 16.2131C4.10853 15.0378 2.73353 13.4918 1.8002 11.5751C1.76686 11.5084 1.74186 11.4208 1.7252 11.3121C1.70853 11.2041 1.7002 11.0918 1.7002 10.9751C1.7002 10.8584 1.70853 10.7501 1.7252 10.6501C1.74186 10.5501 1.76686 10.4584 1.8002 10.3751C2.18353 9.60843 2.64186 8.9001 3.1752 8.2501C3.70853 7.6001 4.28353 7.0251 4.9002 6.5251L2.6502 4.2501C2.5002 4.1001 2.4252 3.9251 2.4252 3.7251C2.4252 3.5251 2.5002 3.34176 2.6502 3.1751C2.8002 3.04176 2.97953 2.9751 3.1882 2.9751C3.3962 2.9751 3.56686 3.04176 3.7002 3.1751L20.3002 19.7751C20.4335 19.9084 20.5045 20.0751 20.5132 20.2751C20.5212 20.4751 20.4502 20.6584 20.3002 20.8251C20.1502 20.9584 19.9712 21.0251 19.7632 21.0251C19.5545 21.0251 19.3752 20.9584 19.2252 20.8251ZM5.9502 7.5751C5.41686 7.99176 4.90453 8.4961 4.4132 9.0881C3.9212 9.67943 3.51686 10.3084 3.2002 10.9751C4.03353 12.6584 5.2292 13.9958 6.7872 14.9871C8.34586 15.9791 10.0835 16.4751 12.0002 16.4751C12.4502 16.4751 12.9002 16.4374 13.3502 16.3621C13.8002 16.2874 14.1835 16.2084 14.5002 16.1251L13.2502 14.8251C13.0669 14.8918 12.8669 14.9458 12.6502 14.9871C12.4335 15.0291 12.2169 15.0501 12.0002 15.0501C10.8669 15.0501 9.90453 14.6541 9.1132 13.8621C8.3212 13.0708 7.9252 12.1084 7.9252 10.9751C7.9252 10.7751 7.9462 10.5624 7.9882 10.3371C8.02953 10.1124 8.08353 9.90843 8.1502 9.7251L5.9502 7.5751Z" fill="#1C1B1F"/>
</svg>
